# xmcd
#
# Track frame offsets:
#	150
#	11557
#	23191
#	34190
#	40897
#	54720
#	66314
#	74630
#	90669
#	101758
#
# Disc length: 1490 seconds
#
# Revision: 1
# Processed by: cddbd v1.5.2PL0 Copyright (c) Steve Scherf et al.
# Submitted via: audiograbber 1.83.01
#
DISCID=8b05d00a
DTITLE=Johnny Bernard - An American Original
DYEAR=1999
DGENRE=Country
TTITLE0=All I Need Is A Miracle
TTITLE1=Johnny B Good
TTITLE2=Hot Texas Sun
TTITLE3=When I Say I Do
TTITLE4=I Worked With Ol Lefty One Time
TTITLE5=Devils Guitar
TTITLE6=Outlaw On The Run
TTITLE7=Two Lonely Guitars
TTITLE8=Yesterday´s Wine
TTITLE9=Wildwood
EXTD=
EXTT0=
EXTT1=
EXTT2=
EXTT3=
EXTT4=
EXTT5=
EXTT6=
EXTT7=
EXTT8=
EXTT9=
PLAYORDER=
